<svg viewBox="0 0 102 40" fill="none" xmlns="http://www.w3.org/2000/svg">
  <path fill-rule="evenodd" clip-rule="evenodd" d="M42.04 17.351V27.2h4.151v-9.849h3.29v-3.164H38.764v3.164h3.276zm9.52 4.48c0 3.717 2.15 5.607 5.95 5.607h.007c3.64 0 5.971-1.729 5.971-5.642v-7.609h-4.15v7.462c0 1.708-.365 2.548-1.82 2.548-1.478 0-1.842-.84-1.842-2.527v-7.483H51.56v7.644zM66.372 27.2V14.187h5.187c3.752 0 5.355 1.68 5.355 4.459v.07c0 2.716-1.806 4.242-5.173 4.242h-1.26V27.2h-4.109zm4.97-7.007h-.854v-2.926h.875c1.078 0 1.638.399 1.638 1.4v.07c0 .966-.567 1.456-1.659 1.456zm7.714 7.007V14.187h4.13v9.828h4.74V27.2h-8.87zm11.2-13.013V27.2h9.541v-3.164h-5.425v-1.953h4.074v-2.891h-4.074v-1.841h5.131v-3.164h-9.247z" fill="#1F2E41"/>
  <path d="M7.6 14.6L24.4 9v29.4L7.6 32.8V14.6z" fill="#BFC6F1"/>
  <path d="M2 7.6L18.8 2v29.4L2 25.8V7.6z" fill="#4652AF"/>
</svg>